<svg xmlns="http://www.w3.org/2000/svg" viewBox="0 0 800 450" preserveAspectRatio="xMidYMid slice" shape-rendering="crispEdges"><defs>
    <linearGradient id="sky" x1="0" y1="0" x2="0" y2="1">
      <stop offset="0" stop-color="#0a1230"/><stop offset="0.55" stop-color="#10244a"/><stop offset="1" stop-color="#0b1322"/>
    </linearGradient>
    <radialGradient id="glow" cx="0.5" cy="0.5" r="0.5">
      <stop offset="0" stop-color="#2e7cff" stop-opacity="0.35"/>
      <stop offset="1" stop-color="#2e7cff" stop-opacity="0"/>
    </radialGradient></defs><rect width="800" height="450" fill="url(#sky)"/><rect x="441" y="216" width="2" height="2" fill="#b9ccff" opacity="0.72"/><rect x="692" y="158" width="2" height="2" fill="#b9ccff" opacity="0.48"/><rect x="603" y="39" width="4" height="4" fill="#b9ccff" opacity="0.73"/><rect x="592" y="171" width="2" height="2" fill="#b9ccff" opacity="0.80"/><rect x="286" y="69" width="2" height="2" fill="#b9ccff" opacity="0.43"/><rect x="184" y="102" width="2" height="2" fill="#b9ccff" opacity="0.53"/><rect x="473" y="193" width="2" height="2" fill="#b9ccff" opacity="0.80"/><rect x="788" y="26" width="2" height="2" fill="#b9ccff" opacity="0.54"/><rect x="157" y="45" width="2" height="2" fill="#b9ccff" opacity="0.49"/><rect x="511" y="166" width="2" height="2" fill="#b9ccff" opacity="0.25"/><rect x="603" y="68" width="2" height="2" fill="#b9ccff" opacity="0.54"/><rect x="129" y="71" width="2" height="2" fill="#b9ccff" opacity="0.64"/><rect x="464" y="177" width="2" height="2" fill="#b9ccff" opacity="0.69"/><rect x="635" y="103" width="4" height="4" fill="#b9ccff" opacity="0.76"/><rect x="141" y="237" width="2" height="2" fill="#b9ccff" opacity="0.50"/><rect x="420" y="36" width="4" height="4" fill="#b9ccff" opacity="0.80"/><rect x="200" y="115" width="2" height="2" fill="#b9ccff" opacity="0.54"/><rect x="116" y="199" width="2" height="2" fill="#b9ccff" opacity="0.50"/><rect x="237" y="65" width="2" height="2" fill="#b9ccff" opacity="0.62"/><rect x="685" y="227" width="2" height="2" fill="#b9ccff" opacity="0.49"/><rect x="589" y="196" width="2" height="2" fill="#b9ccff" opacity="0.44"/><rect x="357" y="116" width="2" height="2" fill="#b9ccff" opacity="0.74"/><rect x="501" y="14" width="2" height="2" fill="#b9ccff" opacity="0.27"/><rect x="18" y="114" width="2" height="2" fill="#b9ccff" opacity="0.80"/><rect x="738" y="34" width="2" height="2" fill="#b9ccff" opacity="0.52"/><rect x="254" y="204" width="2" height="2" fill="#b9ccff" opacity="0.74"/><rect x="249" y="233" width="2" height="2" fill="#b9ccff" opacity="0.67"/><rect x="432" y="144" width="2" height="2" fill="#b9ccff" opacity="0.26"/><rect x="485" y="84" width="2" height="2" fill="#b9ccff" opacity="0.72"/><rect x="649" y="96" width="4" height="4" fill="#b9ccff" opacity="0.27"/><rect x="556" y="139" width="2" height="2" fill="#b9ccff" opacity="0.78"/><rect x="111" y="83" width="2" height="2" fill="#b9ccff" opacity="0.30"/><rect x="51" y="234" width="4" height="4" fill="#b9ccff" opacity="0.79"/><rect x="779" y="23" width="2" height="2" fill="#b9ccff" opacity="0.78"/><rect x="700" y="234" width="2" height="2" fill="#b9ccff" opacity="0.26"/><rect x="257" y="87" width="2" height="2" fill="#b9ccff" opacity="0.48"/><rect x="489" y="129" width="4" height="4" fill="#b9ccff" opacity="0.36"/><rect x="326" y="145" width="2" height="2" fill="#b9ccff" opacity="0.68"/><rect x="220" y="193" width="2" height="2" fill="#b9ccff" opacity="0.77"/><rect x="741" y="32" width="2" height="2" fill="#b9ccff" opacity="0.31"/><rect x="133" y="239" width="2" height="2" fill="#b9ccff" opacity="0.72"/><rect x="664" y="138" width="2" height="2" fill="#b9ccff" opacity="0.75"/><rect x="160" y="185" width="4" height="4" fill="#b9ccff" opacity="0.60"/><rect x="555" y="93" width="2" height="2" fill="#b9ccff" opacity="0.50"/><rect x="650" y="204" width="2" height="2" fill="#b9ccff" opacity="0.73"/><rect x="513" y="11" width="2" height="2" fill="#b9ccff" opacity="0.60"/><rect x="322" y="207" width="2" height="2" fill="#b9ccff" opacity="0.66"/><rect x="661" y="71" width="2" height="2" fill="#b9ccff" opacity="0.60"/><rect x="289" y="148" width="2" height="2" fill="#b9ccff" opacity="0.40"/><rect x="388" y="183" width="2" height="2" fill="#b9ccff" opacity="0.49"/><rect x="514" y="159" width="2" height="2" fill="#b9ccff" opacity="0.38"/><rect x="439" y="219" width="2" height="2" fill="#b9ccff" opacity="0.25"/><rect x="730" y="16" width="2" height="2" fill="#b9ccff" opacity="0.36"/><rect x="649" y="79" width="2" height="2" fill="#b9ccff" opacity="0.77"/><rect x="201" y="172" width="2" height="2" fill="#b9ccff" opacity="0.71"/><rect x="538" y="80" width="2" height="2" fill="#b9ccff" opacity="0.39"/><rect x="336" y="143" width="2" height="2" fill="#b9ccff" opacity="0.70"/><rect x="348" y="183" width="2" height="2" fill="#b9ccff" opacity="0.73"/><rect x="556" y="188" width="2" height="2" fill="#b9ccff" opacity="0.55"/><rect x="130" y="46" width="2" height="2" fill="#b9ccff" opacity="0.31"/><rect x="203" y="97" width="2" height="2" fill="#b9ccff" opacity="0.36"/><rect x="84" y="137" width="2" height="2" fill="#b9ccff" opacity="0.43"/><rect x="109" y="37" width="2" height="2" fill="#b9ccff" opacity="0.42"/><rect x="552" y="206" width="2" height="2" fill="#b9ccff" opacity="0.69"/><rect x="607" y="238" width="2" height="2" fill="#b9ccff" opacity="0.84"/><rect x="50" y="58" width="2" height="2" fill="#b9ccff" opacity="0.73"/><rect x="796" y="12" width="2" height="2" fill="#b9ccff" opacity="0.70"/><circle cx="400" cy="190" r="170" fill="url(#glow)"/><g transform="translate(310 95) scale(2.8)"><path d="M42.5 23.5V15.5H21.5V32H42.5V48.5H21.5V40.5" transform="translate(6.8 0) skewX(-12)" fill="none" stroke="#2e7cff" stroke-width="9"/></g><path d="M0 450 L0 384 L0 384 L32 384 L32 384 L64 384 L64 352 L96 352 L96 384 L128 384 L128 384 L160 384 L160 384 L192 384 L192 352 L224 352 L224 352 L256 352 L256 384 L288 384 L288 352 L320 352 L320 384 L352 384 L352 352 L384 352 L384 416 L416 416 L416 384 L448 384 L448 352 L480 352 L480 352 L512 352 L512 352 L544 352 L544 352 L576 352 L576 384 L608 384 L608 352 L640 352 L640 320 L672 320 L672 352 L704 352 L704 320 L736 320 L736 352 L768 352 L768 352 L800 352 L800 352 L832 352 L832 450 Z" fill="#0c1424"/><rect x="0" y="384" width="32" height="11" fill="#1c3558"/><rect x="32" y="384" width="32" height="11" fill="#1c3558"/><rect x="64" y="352" width="32" height="11" fill="#1c3558"/><rect x="96" y="384" width="32" height="11" fill="#1c3558"/><rect x="128" y="384" width="32" height="11" fill="#1c3558"/><rect x="160" y="384" width="32" height="11" fill="#1c3558"/><rect x="192" y="352" width="32" height="11" fill="#1c3558"/><rect x="224" y="352" width="32" height="11" fill="#1c3558"/><rect x="256" y="384" width="32" height="11" fill="#1c3558"/><rect x="288" y="352" width="32" height="11" fill="#1c3558"/><rect x="320" y="384" width="32" height="11" fill="#1c3558"/><rect x="352" y="352" width="32" height="11" fill="#1c3558"/><rect x="384" y="416" width="32" height="11" fill="#1c3558"/><rect x="416" y="384" width="32" height="11" fill="#1c3558"/><rect x="448" y="352" width="32" height="11" fill="#1c3558"/><rect x="480" y="352" width="32" height="11" fill="#1c3558"/><rect x="512" y="352" width="32" height="11" fill="#1c3558"/><rect x="544" y="352" width="32" height="11" fill="#1c3558"/><rect x="576" y="384" width="32" height="11" fill="#1c3558"/><rect x="608" y="352" width="32" height="11" fill="#1c3558"/><rect x="640" y="320" width="32" height="11" fill="#1c3558"/><rect x="672" y="352" width="32" height="11" fill="#1c3558"/><rect x="704" y="320" width="32" height="11" fill="#1c3558"/><rect x="736" y="352" width="32" height="11" fill="#1c3558"/><rect x="768" y="352" width="32" height="11" fill="#1c3558"/><rect x="800" y="352" width="32" height="11" fill="#1c3558"/><rect x="26" y="238" width="4" height="4" fill="#8fb4ff" opacity="0.49"/><rect x="629" y="188" width="3" height="3" fill="#8fb4ff" opacity="0.25"/><rect x="129" y="287" width="5" height="5" fill="#8fb4ff" opacity="0.45"/><rect x="378" y="300" width="5" height="5" fill="#8fb4ff" opacity="0.21"/><rect x="161" y="343" width="3" height="3" fill="#8fb4ff" opacity="0.22"/><rect x="584" y="319" width="4" height="4" fill="#8fb4ff" opacity="0.45"/><rect x="141" y="94" width="8" height="8" fill="#8fb4ff" opacity="0.31"/><rect x="569" y="168" width="4" height="4" fill="#8fb4ff" opacity="0.26"/><rect x="800" y="210" width="8" height="8" fill="#8fb4ff" opacity="0.31"/><rect x="526" y="228" width="4" height="4" fill="#8fb4ff" opacity="0.25"/><rect x="702" y="262" width="6" height="6" fill="#8fb4ff" opacity="0.36"/><rect x="465" y="244" width="4" height="4" fill="#8fb4ff" opacity="0.35"/><rect x="627" y="112" width="4" height="4" fill="#8fb4ff" opacity="0.22"/></svg>
